{"title":"The Fighter 2010 SCR XViD SnF SAFCuk009+Fabreezy","uid":6077602,"size":1456367357,"categoryP":"video","categoryS":"movies","magnet":"?xt=urn:btih:6b35ecf8238c654ea60689d6b59e56fba58202c9&amp;dn=The+Fighter+2010+SCR+XViD+SnF+SAFCuk009%2BFabreezy&amp;tr=udp%3A%2F%2Ftracker.openbittorrent.com%3A80&amp;tr=udp%3A%2F%2Fopen.demonii.com%3A1337&amp;tr=udp%3A%2F%2Ftracker.coppersurfer.tk%3A6969&amp;tr=udp%3A%2F%2Fexodus.desync.com%3A6969","seeders":0,"leechers":1,"uploader":"SAFCukO09","files":2,"time":1293952909,"description":"Format : AVI\nFormat/Info : Audio Video Interleave\nFile size : 1.36 GiB\nDuration : 1h 51mn\nOverall bit rate : 1 744 Kbps\nWriting library : VirtualDub build 32839/release\n\nVideo\nID : 0\nFormat : MPEG-4 Visual\nFormat profile : Advanced Simple@L5\nFormat settings, BVOP : Yes\nFormat settings, QPel : No\nFormat settings, GMC : No warppoints\nFormat settings, Matrix : Custom\nCodec ID : XVID\nCodec ID/Hint : XviD\nDuration : 1h 51mn\nBit rate : 1 543 Kbps\nWidth : 720 pixels\nHeight : 304 pixels\nDisplay aspect ratio : 2.35:1\nFrame rate : 23.976 fps\nColor space : YUV\nChroma subsampling : 4:2:0\nBit depth : 8 bits\nScan type : Progressive\nBits/(Pixel*Frame) : 0.294\nStream size : 1.20 GiB (88%)\nWriting library : XviD 1.2.1 (UTC 2008-12-04)\n\nAudio\nID : 1\nFormat : MPEG Audio\nFormat version : Version 1\nFormat profile : Layer 3\nCodec ID : 55\nCodec ID/Hint : MP3\nDuration : 1h 51mn\nBit rate mode : Constant\nBit rate : 192 Kbps\nChannel(s) : 2 channels\nSampling rate : 44.1 KHz\nStream size : 153 MiB (11%)\nAlignment : Split accross interleaves\nInterleave, duration : 42 ms (1.00 video frame)\nInterleave, preload duration : 500 ms\n\n\n\n &lt;a href=&quot;\nhttp://www.imdb.com/title/tt0964517/&quot; rel=&quot;nofollow&quot; target=&quot;_NEW&quot;&gt;\nhttp://www.imdb.com/title/tt0964517/&lt;/a&gt;\n\n\n\n\nA look at the early years of boxer \\&quot;Irish\\&quot; Micky Ward and his brother who helped train him before going pro in the mid 1980s.\nDirector:\nDavid O. Russell\nWriters:\nScott Silver (screenplay), Paul Tamasy (screenplay), and 4 more credits Ã‚Â»\nStars:\nMark Wahlberg, Christian Bale and Amy Adams \n\n\nThanks once again to IMAGINE for the source...Ran my usual filters through this ,done what i can with it,Before we get the stupid comments saying this is a cam its not its as stated a screener vhs aint dvd quality.Enjoy if you want it\n\n\n\nGreetz to Imagine ,Flawl3ss ,Santi ,Vision ,Kingdom,BDK,DiGiTALiNK,LEGION,Classified,THC,WBZ,Rx ,Feel Free and to all who share","torrent":{"xt":"urn:btih:6b35ecf8238c654ea60689d6b59e56fba58202c9","amp;dn":"The+Fighter+2010+SCR+XViD+SnF+SAFCuk009%2BFabreezy","amp;tr":["udp%3A%2F%2Ftracker.openbittorrent.com%3A80","udp%3A%2F%2Fopen.demonii.com%3A1337","udp%3A%2F%2Ftracker.coppersurfer.tk%3A6969","udp%3A%2F%2Fexodus.desync.com%3A6969"],"infoHash":"6b35ecf8238c654ea60689d6b59e56fba58202c9","infoHashBuffer":{"type":"Buffer","data":[107,53,236,248,35,140,101,78,166,6,137,214,181,158,86,251,165,130,2,201]},"announce":[],"urlList":[]}}